<svg xmlns="http://www.w3.org/2000/svg" viewBox="0 0 64 64">
  <defs>
    <linearGradient id="sheet" x1="10" x2="54" y1="8" y2="56" gradientUnits="userSpaceOnUse">
      <stop offset="0" stop-color="#14ff9e"/>
      <stop offset="1" stop-color="#00b96d"/>
    </linearGradient>
    <linearGradient id="fold" x1="40" x2="54" y1="8" y2="22" gradientUnits="userSpaceOnUse">
      <stop offset="0" stop-color="#d7ffee"/>
      <stop offset="1" stop-color="#94ffd0"/>
    </linearGradient>
  </defs>
  <rect width="64" height="64" rx="16" fill="#041f16"/>
  <path d="M18 8h24l12 12v30a6 6 0 0 1-6 6H18a6 6 0 0 1-6-6V14a6 6 0 0 1 6-6Z" fill="url(#sheet)"/>
  <path d="M42 8v10a4 4 0 0 0 4 4h8Z" fill="url(#fold)"/>
  <rect x="19" y="24" width="26" height="22" rx="3" fill="#f4fff9" opacity=".95"/>
  <path d="M28 24v22M36 24v22M19 31.5h26M19 39h26" stroke="#00b96d" stroke-width="2"/>
  <path d="m21 14 7 4-7 4z" fill="#043222"/>
</svg>
